# xmcd CD database file
#
# Track frame offsets:
#	150
#	15124
#	29416
#	44018
#	60825
#	77858
#	91965
#	107693
#	125016
#	141729
#	160402
#	175999
#	192479
#	213822
#	235317
#	255370
#	271860
#	291390
#	305479
#	323401
#
# Disc length: 4568 seconds
#
# Revision: 3
# Processed by: cddbd v1.5.2PL0 Copyright (c) Steve Scherf et al.
# Submitted via: CDex 1.70beta2
#
DISCID=1911d614
DTITLE=Various Artist - The Motown Story Volume 1: The 1960s [Disc2]
DYEAR=2003
DGENRE=R&B
TTITLE0=Four Tops - I Can't Help Myself (Sugar Pie Honey Bunch)
TTITLE1=Stevie Wonder - Uptight (Everything's Alright)
TTITLE2=The Temptations - Ain't Too Proud To Beg
TTITLE3=Jimmy Ruffin - What Becomes Of The Brokenhearted
TTITLE4=Four Tops - Reach Out I'll Be There
TTITLE5=The Supremes - You Keep Me Hanging On
TTITLE6=Martha and The Vandellas - Jimmy Mack
TTITLE7=Marvin Gaye and Tammy Terrell - Ain't No Mountain High Enough
TTITLE8=Diana Ross and The Supremes - Reflections
TTITLE9=Gladys Knight and The Pips - I Heard It Through The Grapevine
TTITLE10=Smokey Robinson and The Miracles - I Second That Emotion
TTITLE11=Diana Ross and The Supremes - Love Child
TTITLE12=The Temptations - Cloud Nine
TTITLE13=Marvin Gaye - I Heard It Through The Grapevine
TTITLE14=Diana Ross and The Supremes and The Temptations - I'm Gonna Make You Love Me
TTITLE15=Stevie Wonder - For Once In My Life
TTITLE16=Edwin Starr - Twenty-Five Miles
TTITLE17=Jr. Walker and The All Stars - What Does It Take (To Win Your Love)
TTITLE18=The Originals - Baby I'm For Real
TTITLE19=Diana Ross and The Supremes - Someday We'll Be Together
EXTD=YEAR: 2003
EXTT0=
EXTT1=
EXTT2=
EXTT3=
EXTT4=
EXTT5=
EXTT6=
EXTT7=
EXTT8=
EXTT9=
EXTT10=
EXTT11=
EXTT12=
EXTT13=
EXTT14=
EXTT15=
EXTT16=
EXTT17=
EXTT18=
EXTT19=
PLAYORDER=
